#!OML:ASF H:\Dans Jumps\Project 1\Capture day 1\Session 1\subject.ASF
:FULLY-SPECIFIED
:DEGREES
553
root 0.37425 17.7882 3.08227 7.78546 -1.16004 -1.27653
lowerback -2.61002 -0.0755697 0.0195972
upperback 2.75508 -0.158707 1.44658
thorax 4.30772 -0.103113 1.47175
lowerneck -13.0044 0.209524 -1.6966
upperneck 27.7859 0.570329 0.523601
head 11.1241 0.143092 0.557357
rclavicle 4.32357e-015 -6.95746e-015
rhumerus -25.3796 -15.4197 -82.0532
rradius 22.9878
rwrist 35.3816
rhand -22.2421 -29.0774
rfingers 7.12502
rthumb 4.17502 -59.0163
lclavicle 4.32357e-015 -6.95746e-015
lhumerus -19.9606 1.75245 89.4551
lradius 14.9051
lwrist 0.133184
lhand -25.7131 -7.20835
lfingers 7.12502
lthumb 0.822808 22.7698
rfemur -14.1087 -1.82502 19.5411
rtibia 20.1155
rfoot -12.0025 -0.322843
rtoes 17.7948
lfemur -10.2925 6.22222 -18.1235
ltibia 15.3253
lfoot -9.31433 5.74819
ltoes 1.67686
554
root 0.375666 17.7877 3.07964 7.75924 -1.17844 -1.26759
lowerback -2.62179 -0.0747254 0.00719668
upperback 2.75261 -0.156735 1.43791
thorax 4.31179 -0.102379 1.46988
lowerneck -13.0379 0.209862 -1.68264
upperneck 27.7075 0.571791 0.509313
head 11.1011 0.143962 0.549655
rclavicle 4.96962e-016 3.37934e-015
rhumerus -25.3808 -15.4045 -82.0659
rradius 23.0086
rwrist 35.3638
rhand -22.2429 -29.0737
rfingers 7.12502
rthumb 4.17417 -59.0126
lclavicle 4.96962e-016 3.37934e-015
lhumerus -20.005 1.90213 89.3987
lradius 14.8246
lwrist -0.03251
lhand -25.6659 -7.15084
lfingers 7.12502
lthumb 0.868418 22.8271
rfemur -14.1 -1.83338 19.5239
rtibia 20.1299
rfoot -12.0023 -0.298627
rtoes 17.7985
lfemur -10.2701 6.21592 -18.1396
ltibia 15.3239
lfoot -9.29947 5.77658
ltoes 1.66106
555
root 0.376961 17.7872 3.07708 7.73185 -1.20154 -1.26266
lowerback -2.63201 -0.0724541 -0.00420485
upperback 2.75179 -0.153007 1.43172
thorax 4.31665 -0.100792 1.47013
lowerneck -13.0696 0.21146 -1.67184
upperneck 27.6273 0.575786 0.49507
head 11.0771 0.145667 0.542842
rclavicle 5.01931e-015 -9.93923e-016
rhumerus -25.3739 -15.4013 -82.0741
rradius 23.0218
rwrist 35.3559
rhand -22.2191 -29.0773
rfingers 7.12502
rthumb 4.19723 -59.0157
lclavicle 5.01931e-015 -9.93923e-016
lhumerus -20.0434 2.05334 89.3437
lradius 14.7387
lwrist -0.197473
lhand -25.6342 -7.12265
lfingers 7.12502
lthumb 0.899075 22.8552
rfemur -14.0891 -1.83996 19.5114
rtibia 20.142
rfoot -12.0042 -0.271169
rtoes 17.8081
lfemur -10.2445 6.20997 -18.1508
ltibia 15.3216
lfoot -9.28579 5.81021
ltoes 1.65184
556
root 0.378051 17.7867 3.07453 7.70562 -1.22903 -1.25942
lowerback -2.64277 -0.0699748 -0.0190254
upperback 2.75214 -0.148961 1.42812
thorax 4.32305 -0.0992113 1.475
lowerneck -13.0983 0.21509 -1.6628
upperneck 27.5453 0.583795 0.478147
head 11.0518 0.148692 0.535878
rclavicle 5.46658e-015 -5.1684e-015
rhumerus -25.3603 -15.3956 -82.0817
rradius 23.0345
rwrist 35.3484
rhand -22.1931 -29.0794
rfingers 7.12502
rthumb 4.22233 -59.0173
lclavicle 5.46658e-015 -5.1684e-015
lhumerus -20.0777 2.21139 89.288
lradius 14.6516
lwrist -0.367492
lhand -25.623 -7.14209
lfingers 7.12502
lthumb 0.909897 22.8357
rfemur -14.0782 -1.84043 19.5013
rtibia 20.151
rfoot -12.0052 -0.246458
rtoes 17.818
lfemur -10.2203 6.20448 -18.1595
ltibia 15.3208
lfoot -9.27373 5.84828
ltoes 1.64469
